<?xml version="1.0" encoding="utf-8"?>
<!-- Generator: Adobe Illustrator 16.0.0, SVG Export Plug-In . SVG Version: 6.00 Build 0)  -->
<!DOCTYPE svg PUBLIC "-//W3C//DTD SVG 1.1//EN" "http://www.w3.org/Graphics/SVG/1.1/DTD/svg11.dtd">
<svg version="1.1" xmlns="http://www.w3.org/2000/svg" xmlns:xlink="http://www.w3.org/1999/xlink" x="0px" y="0px"
	 width="133.667px" height="24.667px" viewBox="-2.167 0 133.667 24.667" enable-background="new -2.167 0 133.667 24.667"
	 xml:space="preserve">
<g id="Layer_3" display="none">
	<rect x="-2.167" display="inline" width="133.667" height="24.667"/>
</g>
<g id="Layer_2">
	<path fill="#FFFFFF" d="M79.858,3.953c0.137,0,0.204,0.068,0.204,0.205v2.247c0,0.136-0.067,0.204-0.204,0.204h-6.253
		c-0.121,0-0.265,0.051-0.428,0.153c-0.164,0.103-0.317,0.232-0.461,0.388c-0.143,0.157-0.264,0.32-0.368,0.491
		c-0.101,0.17-0.151,0.316-0.151,0.439v5.333c0,0.75,0.168,1.354,0.51,1.819c0.34,0.463,0.777,0.694,1.308,0.694h2.492
		c0.26,0,0.488-0.047,0.686-0.143c0.196-0.095,0.359-0.211,0.49-0.348c0.129-0.135,0.224-0.283,0.285-0.439
		c0.062-0.156,0.094-0.296,0.094-0.418v-1.9c0-0.137-0.069-0.206-0.204-0.206h-3.331c-0.136,0-0.205-0.067-0.205-0.204v-2.247
		c0-0.136,0.069-0.205,0.205-0.205h6.354c0.136,0,0.203,0.069,0.203,0.205v4.598c0,0.312-0.072,0.698-0.215,1.154
		c-0.144,0.457-0.379,0.891-0.704,1.307c-0.327,0.417-0.759,0.773-1.299,1.074c-0.538,0.299-1.206,0.448-2.012,0.448H73.3
		c-0.654,0-1.231-0.149-1.736-0.448c-0.504-0.301-0.93-0.678-1.277-1.135c-0.348-0.456-0.609-0.96-0.786-1.512
		c-0.176-0.552-0.266-1.085-0.266-1.603V8.101c0-0.45,0.099-0.92,0.297-1.41c0.198-0.49,0.465-0.939,0.807-1.348
		c0.341-0.409,0.736-0.743,1.185-1.002c0.45-0.259,0.933-0.389,1.452-0.389h4.229H79.858L79.858,3.953z"/>
	<path fill="#FFFFFF" d="M84.293,3.108h2.18c0.143,0,0.215,0.071,0.215,0.214v12.666v0.043v2.177c0,0.143-0.072,0.215-0.215,0.215
		h-2.18c-0.141,0-0.213-0.072-0.213-0.215v-2.177v-0.043V3.322C84.08,3.179,84.152,3.108,84.293,3.108z"/>
	<path fill="#FFFFFF" d="M90.143,7.347h6.021c0.541,0,1,0.117,1.379,0.353c0.377,0.235,0.684,0.537,0.918,0.907
		c0.234,0.37,0.406,0.783,0.512,1.24c0.107,0.454,0.162,0.911,0.162,1.367v7.049c0,0.141-0.072,0.213-0.213,0.213h-7.455
		c-0.428,0-0.777-0.131-1.047-0.396c-0.271-0.262-0.482-0.572-0.631-0.928c-0.148-0.357-0.252-0.712-0.311-1.068
		c-0.057-0.356-0.084-0.626-0.084-0.812c0-0.342,0.041-0.719,0.127-1.132s0.221-0.793,0.406-1.143
		c0.186-0.348,0.428-0.646,0.727-0.887s0.662-0.363,1.09-0.363h3.566c0.369,0,0.666-0.088,0.887-0.267
		c0.221-0.177,0.332-0.387,0.332-0.629c0-0.199-0.072-0.398-0.215-0.599c-0.143-0.198-0.328-0.298-0.555-0.298h-5.617
		c-0.145,0-0.215-0.072-0.215-0.214V7.562C89.928,7.417,89.998,7.347,90.143,7.347z M96.314,15.976c0.143,0,0.215-0.071,0.215-0.213
		V14.48c0-0.142-0.072-0.212-0.215-0.212h-3.803c-0.199,0-0.363,0.083-0.49,0.245c-0.129,0.164-0.193,0.345-0.193,0.545
		c0,0.243,0.07,0.456,0.215,0.641c0.141,0.186,0.34,0.277,0.598,0.277H96.314L96.314,15.976z"/>
	<path fill="#FFFFFF" d="M107.504,7.348c0.141,0,0.213,0.071,0.213,0.213V9.74c0,0.143-0.072,0.214-0.213,0.214h-2.053
		c-0.127,0-0.242,0.035-0.34,0.105c-0.1,0.073-0.189,0.154-0.268,0.247c-0.078,0.092-0.139,0.192-0.182,0.298
		c-0.043,0.108-0.064,0.203-0.064,0.29v7.369c0,0.143-0.072,0.213-0.213,0.213h-2.393c-0.143,0-0.213-0.072-0.213-0.213v-8.116
		c0-0.371,0.074-0.728,0.225-1.069c0.148-0.342,0.352-0.641,0.609-0.897c0.254-0.256,0.555-0.459,0.896-0.608
		s0.705-0.225,1.09-0.225L107.504,7.348L107.504,7.348L107.504,7.348z"/>
	<path fill="#FFFFFF" d="M117.209,7.294h2.178c0.143,0,0.215,0.071,0.215,0.213v8.416c0,0.457-0.139,0.848-0.416,1.175
		c-0.277,0.326-0.643,0.597-1.09,0.811s-0.953,0.371-1.518,0.471c-0.561,0.099-1.129,0.149-1.697,0.149
		c-0.584,0-1.156-0.051-1.719-0.149c-0.562-0.1-1.066-0.257-1.508-0.471s-0.799-0.483-1.078-0.811
		c-0.277-0.328-0.416-0.719-0.416-1.175V7.508c0-0.143,0.07-0.213,0.213-0.213h2.18c0.143,0,0.213,0.071,0.213,0.213v7.497
		c0,0.128,0.061,0.25,0.182,0.363c0.121,0.113,0.279,0.214,0.471,0.299c0.191,0.084,0.416,0.149,0.674,0.192
		c0.256,0.044,0.52,0.064,0.789,0.064c0.271,0,0.529-0.02,0.781-0.064c0.248-0.043,0.471-0.107,0.672-0.192
		c0.199-0.085,0.359-0.186,0.48-0.299c0.121-0.114,0.182-0.235,0.182-0.363V7.508C116.996,7.365,117.066,7.294,117.209,7.294z"/>
	<path fill="#FFFFFF" d="M121.75,15.816h5.875c0.199,0,0.355-0.031,0.469-0.095c0.115-0.064,0.203-0.146,0.268-0.245
		s0.104-0.211,0.117-0.33c0.014-0.123,0.021-0.232,0.021-0.332c0-0.185-0.045-0.37-0.139-0.555
		c-0.092-0.185-0.281-0.278-0.564-0.278h-3.355c-0.512,0-0.947-0.082-1.303-0.246c-0.355-0.164-0.641-0.391-0.854-0.682
		c-0.215-0.293-0.371-0.642-0.471-1.047c-0.098-0.406-0.15-0.851-0.15-1.335c0-0.711,0.084-1.287,0.246-1.73
		c0.164-0.442,0.412-0.783,0.748-1.025c0.334-0.242,0.762-0.406,1.281-0.491s1.145-0.128,1.869-0.128h4.613
		c0.143,0,0.215,0.071,0.215,0.213v2.179c0,0.142-0.072,0.213-0.215,0.213h-5.596c-0.229,0-0.393,0.082-0.49,0.244
		c-0.102,0.166-0.15,0.346-0.15,0.545c0,0.186,0.053,0.371,0.16,0.556c0.107,0.185,0.266,0.278,0.48,0.278h3.117
		c0.557,0,1.033,0.061,1.434,0.181c0.396,0.121,0.721,0.325,0.971,0.61c0.248,0.284,0.434,0.672,0.555,1.163
		c0.123,0.491,0.182,1.108,0.182,1.848c0,0.213-0.033,0.496-0.096,0.845c-0.064,0.348-0.182,0.69-0.352,1.024
		c-0.172,0.335-0.41,0.625-0.717,0.865c-0.307,0.243-0.701,0.362-1.186,0.362h-6.984c-0.143,0-0.213-0.07-0.213-0.213v-2.179
		C121.537,15.889,121.607,15.816,121.75,15.816z"/>
	<path fill="#FFFFFF" d="M-0.444,18.322V4.232c0-0.135,0.067-0.203,0.202-0.203h6.894c0.768,0,1.432,0.149,1.992,0.444
		c0.559,0.297,1.02,0.682,1.384,1.153c0.365,0.472,0.63,1.01,0.798,1.617c0.169,0.606,0.253,1.219,0.253,1.839v4.853
		c0,0.524-0.084,1.061-0.253,1.606c-0.168,0.546-0.434,1.043-0.798,1.487c-0.364,0.444-0.822,0.806-1.375,1.081
		c-0.553,0.277-1.212,0.414-1.98,0.414h-6.915C-0.377,18.523-0.444,18.457-0.444,18.322z M2.487,15.694
		c0,0.135,0.067,0.203,0.202,0.203h3.618c0.215,0,0.436-0.059,0.657-0.173c0.223-0.114,0.421-0.263,0.597-0.444
		c0.175-0.182,0.316-0.385,0.425-0.606c0.107-0.223,0.161-0.448,0.161-0.678V8.618c0-0.243-0.061-0.481-0.182-0.717
		C7.843,7.665,7.688,7.457,7.5,7.275C7.311,7.092,7.098,6.944,6.862,6.829C6.626,6.715,6.387,6.658,6.145,6.658H2.688
		c-0.135,0-0.202,0.067-0.202,0.202L2.487,15.694L2.487,15.694L2.487,15.694z"/>
	<path fill="#FFFFFF" d="M13.487,4.674c0-0.178,0.071-0.269,0.213-0.269h2.179c0.142,0,0.214,0.089,0.214,0.269v13.439
		c0,0.18-0.072,0.268-0.214,0.268H13.7c-0.143,0-0.213-0.088-0.213-0.268V4.674z"/>
	<path fill="#FFFFFF" d="M19.643,20.344h5.767c0.184,0,0.328-0.051,0.427-0.148c0.1-0.102,0.175-0.219,0.225-0.353
		c0.05-0.136,0.078-0.285,0.085-0.449c0.007-0.165,0.011-0.31,0.011-0.438v-0.533h-3.182c-0.556,0-1.108-0.114-1.656-0.343
		c-0.548-0.229-1.043-0.566-1.484-1.015c-0.441-0.449-0.801-0.998-1.079-1.645c-0.277-0.648-0.416-1.392-0.416-2.232v-1.368
		c0-0.583,0.084-1.145,0.256-1.687c0.17-0.541,0.434-1.021,0.79-1.441c0.356-0.419,0.815-0.759,1.377-1.015
		c0.563-0.256,1.229-0.384,1.997-0.384h4.934c0.356,0,0.641,0.081,0.854,0.245c0.215,0.164,0.32,0.431,0.32,0.8v11.45
		c0,0.299-0.075,0.622-0.225,0.971c-0.149,0.351-0.353,0.669-0.608,0.962c-0.256,0.291-0.556,0.535-0.897,0.727
		c-0.342,0.192-0.705,0.287-1.089,0.287h-6.408c-0.142,0-0.213-0.07-0.213-0.213v-1.964C19.429,20.416,19.5,20.344,19.643,20.344z
		 M21.362,14.213c0.107,0.357,0.288,0.655,0.545,0.897c0.256,0.243,0.601,0.42,1.036,0.534c0.434,0.114,0.979,0.171,1.634,0.171
		h1.368c0.142,0,0.212-0.072,0.212-0.214v-5.49c0-0.142-0.071-0.213-0.212-0.213h-2.799c-0.684,0-1.179,0.22-1.485,0.663
		c-0.306,0.441-0.459,1.045-0.459,1.816v0.554C21.202,13.43,21.255,13.858,21.362,14.213z"/>
	<path fill="#FFFFFF" d="M31.342,4.716c0-0.179,0.071-0.269,0.213-0.269h2.179c0.143,0,0.213,0.089,0.213,0.269v13.439
		c0,0.18-0.071,0.268-0.213,0.268h-2.179c-0.143,0-0.213-0.088-0.213-0.268V4.716z"/>
	<path fill="#FFFFFF" d="M40.374,15.571c0,0.141,0.07,0.214,0.213,0.214h1.794c0.114,0.015,0.171,0.085,0.171,0.213v2.179
		c0,0.143-0.072,0.213-0.214,0.213h-2.691c-0.542,0-0.989-0.162-1.346-0.491c-0.355-0.328-0.534-0.711-0.534-1.153v-6.664
		c0-0.142-0.072-0.213-0.214-0.213h-1.131c-0.143,0-0.214-0.071-0.214-0.214V7.476c0-0.142,0.072-0.214,0.214-0.214h1.131
		c0.143,0,0.214-0.071,0.214-0.214v-2.67c0-0.142,0.071-0.213,0.213-0.213h2.179c0.142,0,0.213,0.071,0.213,0.213v2.67
		c0,0.143,0.071,0.214,0.214,0.214h1.752c0.142,0,0.213,0.071,0.213,0.214v2.179c0,0.144-0.072,0.214-0.213,0.214h-1.752
		c-0.143,0-0.214,0.071-0.214,0.213L40.374,15.571L40.374,15.571L40.374,15.571z"/>
	<path fill="#FFFFFF" d="M45.603,7.262h6.022c0.542,0,1,0.118,1.378,0.352c0.378,0.236,0.684,0.538,0.918,0.909
		c0.234,0.371,0.406,0.783,0.512,1.238c0.108,0.457,0.162,0.912,0.162,1.367v7.05c0,0.143-0.072,0.213-0.215,0.213h-7.454
		c-0.428,0-0.776-0.131-1.046-0.396c-0.272-0.262-0.481-0.572-0.63-0.928c-0.15-0.356-0.253-0.712-0.31-1.068
		c-0.057-0.356-0.085-0.626-0.085-0.812c0-0.342,0.042-0.72,0.128-1.133c0.084-0.411,0.22-0.793,0.406-1.142
		c0.184-0.349,0.427-0.645,0.726-0.886c0.299-0.243,0.662-0.364,1.09-0.364h3.566c0.37,0,0.665-0.088,0.886-0.267
		c0.221-0.177,0.332-0.387,0.332-0.63c0-0.198-0.072-0.398-0.214-0.597c-0.143-0.201-0.328-0.3-0.555-0.3h-5.618
		c-0.143,0-0.214-0.07-0.214-0.213v-2.18C45.388,7.333,45.459,7.262,45.603,7.262z M51.775,15.891c0.143,0,0.214-0.072,0.214-0.213
		v-1.282c0-0.141-0.071-0.214-0.214-0.214h-3.803c-0.199,0-0.362,0.082-0.491,0.245c-0.128,0.166-0.192,0.346-0.192,0.545
		c0,0.242,0.071,0.457,0.213,0.641c0.143,0.186,0.342,0.278,0.598,0.278H51.775L51.775,15.891L51.775,15.891z"/>
	<path fill="#FFFFFF" d="M57.517,3.075h2.178c0.144,0,0.214,0.072,0.214,0.214v12.666v0.042v2.179c0,0.143-0.072,0.213-0.214,0.213
		h-2.178c-0.143,0-0.214-0.071-0.214-0.213v-2.179v-0.042V3.289C57.304,3.146,57.374,3.075,57.517,3.075z"/>
</g>
<g id="Layer_1" display="none">
	<g display="inline">
		<path fill="#FFFFFF" d="M36.355,32.42c0-0.518,0.181-1.018,0.545-1.504c0.362-0.488,0.882-0.93,1.557-1.316V29.49
			c-0.354-0.191-0.664-0.467-0.932-0.811c-0.265-0.349-0.399-0.798-0.399-1.347c0-0.427,0.138-0.854,0.415-1.293
			c0.273-0.435,0.662-0.817,1.159-1.156v-0.104c-0.464-0.338-0.854-0.789-1.173-1.35c-0.317-0.558-0.477-1.228-0.477-2.007
			c0-0.729,0.141-1.383,0.423-1.959c0.285-0.577,0.667-1.067,1.148-1.478c0.478-0.409,1.032-0.718,1.664-0.933
			c0.628-0.213,1.299-0.319,2.008-0.319c0.728,0,1.385,0.106,1.971,0.319h5.35v1.997h-3.248c0.268,0.283,0.506,0.638,0.718,1.054
			c0.214,0.418,0.321,0.883,0.321,1.396c0,0.713-0.133,1.345-0.399,1.894c-0.267,0.551-0.631,1.016-1.092,1.396
			c-0.462,0.385-1.003,0.674-1.624,0.862c-0.62,0.195-1.287,0.295-1.998,0.295c-0.317,0-0.66-0.032-1.026-0.104
			c-0.363-0.067-0.721-0.18-1.077-0.319c-0.605,0.393-0.905,0.844-0.905,1.356c0,0.479,0.222,0.826,0.664,1.037
			c0.443,0.217,1.083,0.319,1.916,0.319h2.768c1.707,0,2.968,0.246,3.796,0.73c0.825,0.488,1.237,1.295,1.237,2.41
			c0,0.621-0.174,1.205-0.52,1.758c-0.347,0.551-0.839,1.031-1.479,1.449c-0.637,0.416-1.411,0.748-2.317,0.984
			c-0.904,0.242-1.916,0.363-3.036,0.363c-1.846,0-3.301-0.302-4.365-0.896C36.888,34.447,36.355,33.572,36.355,32.42z
			 M38.589,32.102c0,0.621,0.342,1.121,1.026,1.504c0.684,0.381,1.673,0.572,2.967,0.572c0.692,0,1.318-0.066,1.878-0.199
			c0.559-0.133,1.039-0.311,1.439-0.533c0.4-0.221,0.703-0.475,0.918-0.756c0.213-0.283,0.317-0.584,0.317-0.908
			c0-0.565-0.236-0.94-0.704-1.131c-0.471-0.186-1.177-0.276-2.117-0.276h-2.29c-0.408,0-0.77-0.017-1.09-0.043
			c-0.321-0.021-0.623-0.08-0.905-0.172c-0.534,0.303-0.905,0.612-1.121,0.932C38.699,31.406,38.589,31.744,38.589,32.102z
			 M42.291,24.244c0.747,0,1.384-0.246,1.919-0.744c0.531-0.498,0.799-1.188,0.799-2.074c0-0.855-0.269-1.537-0.799-2.051
			c-0.536-0.516-1.172-0.773-1.919-0.773s-1.384,0.258-1.916,0.773c-0.531,0.514-0.798,1.197-0.798,2.051
			c0,0.887,0.268,1.576,0.798,2.074C40.907,23.996,41.545,24.244,42.291,24.244z"/>
	</g>
	<path display="inline" fill="#FFFFFF" d="M16.389,30.43h-2.231L13.937,28.2h-0.109c-0.662,0.771-1.384,1.391-2.162,1.858
		c-0.781,0.465-1.686,0.699-2.714,0.699c-1.598,0-2.764-0.463-3.497-1.389c-0.736-0.93-1.102-2.281-1.102-4.064v-6.761l-3.566-0.069
		l6.319-2.433l-0.027,1.839v7.068c0,1.193,0.211,2.07,0.633,2.631c0.423,0.561,1.147,0.844,2.176,0.844
		c0.697,0,1.335-0.174,1.914-0.514c0.578-0.34,1.199-0.914,1.859-1.721V16.96h2.727L16.389,30.43L16.389,30.43z"/>
	<path display="inline" fill="#FFFFFF" d="M20.907,16.962h2.229l0.221,2.175h0.109c0.681-0.697,1.414-1.291,2.205-1.776
		c0.788-0.487,1.708-0.729,2.754-0.729c1.58,0,2.737,0.469,3.47,1.403c0.734,0.936,1.104,2.287,1.104,4.051v8.344H30.27v-7.988
		c0-1.174-0.209-2.041-0.633-2.602c-0.42-0.562-1.147-0.844-2.176-0.844c-0.718,0-1.358,0.184-1.93,0.537
		c-0.567,0.359-1.204,0.896-1.9,1.613v9.281h-2.725L20.907,16.962L20.907,16.962z"/>
	<path display="inline" fill="#FFFFFF" d="M63.43,23.711c0-1.104,0.194-2.092,0.58-2.963c0.386-0.871,0.898-1.617,1.543-2.23
		c0.641-0.614,1.375-1.083,2.204-1.406c0.826-0.321,1.683-0.48,2.562-0.48c0.992,0,1.867,0.154,2.634,0.468
		c0.758,0.312,1.407,0.747,1.938,1.304c0.534,0.562,0.94,1.232,1.213,2.014c0.274,0.779,0.416,1.639,0.416,2.574
		c0,0.277-0.017,0.539-0.043,0.787c-0.026,0.25-0.06,0.455-0.097,0.619H66.24c0.092,1.32,0.582,2.354,1.475,3.098
		c0.891,0.744,2.014,1.117,3.373,1.117c0.736,0,1.418-0.104,2.053-0.305s1.254-0.486,1.855-0.854l0.967,1.733
		C75.27,29.629,74.48,30,73.607,30.307c-0.871,0.301-1.832,0.451-2.879,0.451c-1.011,0-1.959-0.156-2.851-0.479
		c-0.892-0.323-1.666-0.785-2.327-1.391c-0.662-0.607-1.182-1.349-1.558-2.222C63.619,25.797,63.43,24.811,63.43,23.711z
		 M73.98,22.527c0-1.215-0.316-2.141-0.939-2.783s-1.512-0.963-2.67-0.963c-1.012,0-1.91,0.32-2.699,0.963
		c-0.791,0.645-1.279,1.568-1.461,2.783H73.98z"/>
	<path display="inline" fill="#FFFFFF" d="M85.475,16.535l0.01,14.17h-2.729V20.359h-5.113L85.475,16.535z M83.887,13.758
		c-0.588,0-1.072-0.176-1.463-0.522c-0.381-0.35-0.574-0.819-0.574-1.406s0.193-1.059,0.574-1.417
		c0.391-0.358,0.873-0.537,1.463-0.537c0.586,0,1.076,0.178,1.459,0.537c0.389,0.359,0.582,0.831,0.582,1.417
		c0,0.587-0.193,1.057-0.582,1.406C84.963,13.582,84.473,13.758,83.887,13.758z"/>
	<path display="inline" fill="#FFFFFF" d="M89.264,23.982c0-1.117,0.203-2.121,0.607-2.998c0.404-0.883,0.957-1.627,1.654-2.234
		c0.695-0.605,1.498-1.062,2.408-1.376c0.908-0.311,1.877-0.467,2.904-0.467c1.104,0,2.062,0.188,2.893,0.563
		c0.83,0.375,1.518,0.833,2.066,1.363l-1.318,1.735c-0.535-0.441-1.088-0.787-1.658-1.033c-0.564-0.248-1.182-0.37-1.844-0.37
		c-0.713,0-1.375,0.114-1.984,0.345c-0.604,0.229-1.123,0.553-1.553,0.977c-0.434,0.425-0.77,0.933-1.004,1.529
		c-0.24,0.596-0.359,1.254-0.359,1.967c0,0.718,0.115,1.375,0.344,1.97c0.23,0.601,0.561,1.106,0.99,1.53
		c0.432,0.418,0.941,0.748,1.527,0.978c0.59,0.229,1.238,0.345,1.959,0.345c0.824,0,1.568-0.156,2.229-0.47
		c0.66-0.312,1.258-0.688,1.791-1.133l1.158,1.767c-0.771,0.659-1.617,1.172-2.533,1.526c-0.918,0.356-1.875,0.534-2.865,0.534
		c-1.047,0-2.023-0.153-2.934-0.467c-0.908-0.311-1.691-0.771-2.354-1.377c-0.664-0.606-1.184-1.348-1.559-2.219
		C89.453,26.102,89.264,25.105,89.264,23.982z"/>
	<path display="inline" fill="#FFFFFF" d="M102.209,11.254l5.711-2.831v7.933l-0.166,3.029c0.682-0.697,1.412-1.285,2.205-1.763
		c0.789-0.476,1.705-0.715,2.754-0.715c1.578,0,2.734,0.467,3.469,1.404c0.732,0.936,1.102,2.289,1.102,4.049v8.344h-2.727v-7.988
		c0-1.176-0.211-2.041-0.635-2.602c-0.422-0.561-1.145-0.842-2.176-0.842c-0.715,0-1.359,0.18-1.924,0.537
		c-0.574,0.358-1.205,0.896-1.904,1.612v9.281h-2.727l-0.061-19.565L102.209,11.254z"/>
	<g display="inline">
		<polygon fill="#FFFFFF" points="117.797,5.167 116.877,7.086 128.295,7.134 129.213,5.178 		"/>
		<polygon fill="#FFFFFF" points="116.893,9.352 115.945,11.366 127.379,11.39 128.295,9.398 		"/>
		<polygon fill="#FFFFFF" points="119.123,13.652 124.359,2.5 126.377,2.53 121.201,13.654 		"/>
	</g>
	<g display="inline">
		<path fill="#FFFFFF" d="M56.6,26.051c0,0.9,0.226,1.557,0.679,1.955c0.452,0.4,1.041,0.602,1.77,0.602
			c0.354,0,0.72-0.047,1.092-0.135c0.372-0.09,0.791-0.231,1.25-0.428l0.639,1.973c-0.302,0.104-0.591,0.199-0.865,0.293
			c-0.278,0.086-0.556,0.16-0.838,0.224c-0.284,0.065-0.581,0.116-0.89,0.159c-0.313,0.045-0.653,0.068-1.025,0.068
			c-1.457,0-2.562-0.416-3.317-1.254c-0.754-0.832-1.131-2.037-1.131-3.619V8.161h-4.261l6.895-4.858"/>
	</g>
</g>
</svg>
